<svg width="500" height="500" viewBox="0 0 500 500" xmlns="http://www.w3.org/2000/svg">
  <rect width="500" height="500" fill="#4a7c59"/>
  <g transform="translate(250, 250) scale(7.5)">
    <g stroke-width="1" fill-rule="evenodd">
      <path d="M24.7554817,26.0199381 C24.7554817,26.0199381 29.6426261,21.3038287 31.5008697,14.3687691 C33.3591133,7.43370937 33.1751471,1.35879999 31.4847769,0.905866658 C29.7944064,0.452934277 26.5976326,5.62197606 24.7393889,12.5570357 C22.8811453,19.4920954 24.7554817,26.0199381 24.7554817,26.0199381 Z M28.2125658,24.4591735 C28.2125658,24.4591735 34.9532507,25.2892542 41.512235,22.3690062 C48.0712192,19.4487583 52.6765368,15.4827253 51.9647477,13.8840208 C51.2529576,12.2853166 45.2240627,13.0539401 38.6650785,15.974188 C32.1060942,18.894436 28.2125658,24.4591735 28.2125658,24.4591735 Z M31.6477109,26.2247743 C31.6477109,26.2247743 35.1435785,32.0475552 41.4828791,35.4182212 C47.8221798,38.7888871 53.7827731,39.9761932 54.6043483,38.4310349 C55.4259227,36.8858762 51.1084808,32.608254 44.7691801,29.237588 C38.4298794,25.8669221 31.6477109,26.2247743 31.6477109,26.2247743 Z M32.3907986,29.9443491 C32.3907986,29.9443491 30.0656686,36.3255432 31.4356204,43.373334 C32.8055721,50.4211248 35.6339849,55.8005716 37.3518324,55.4666559 C39.0696798,55.1327392 39.6769624,49.0854618 38.3070106,42.037671 C36.9370589,34.9898803 32.3907986,29.9443491 32.3907986,29.9443491 Z M29.8977105,32.894278 C29.8977105,32.894278 23.437768,34.990706 18.7274596,40.4092959 C14.0171512,45.8278859 11.519434,51.3686238 12.8401757,52.5167271 C14.1609181,53.6648296 19.3001182,50.4202991 24.0104266,45.0017091 C28.720735,39.5831192 29.8977105,32.894278 29.8977105,32.894278 Z M26.1063097,32.781598 C26.1063097,32.781598 20.4117057,29.0806047 13.2363772,28.8300367 C6.06104881,28.5794687 0.183222358,30.1252772 0.122148238,31.8742111 C0.0610751001,33.6231451 5.81675233,35.5752045 12.9920808,35.8257725 C20.1674092,36.0763405 26.1063097,32.781598 26.1063097,32.781598 Z M23.7928102,29.6888181 C23.7928102,29.6888181 23.2032844,22.9228498 18.9831614,17.1143488 C14.7630384,11.3058477 9.92617335,7.62575202 8.51039361,8.65437621 C7.09461445,9.68300119 9.0999194,15.4203445 13.3200424,21.2288455 C17.5401654,27.0373465 23.7928102,29.6888181 23.7928102,29.6888181 Z M28.1201293,31.4629024 C29.5008412,31.4629024 30.6201293,30.3436143 30.6201293,28.9629024 C30.6201293,27.5821905 29.5008412,26.4629024 28.1201293,26.4629024 C26.7394174,26.4629024 25.6201293,27.5821905 25.6201293,28.9629024 C25.6201293,30.3436143 26.7394174,31.4629024 28.1201293,31.4629024 Z" fill="#f8f4e8" transform="translate(-28, -28)"/>
    </g>
  </g>
</svg>
